<svg xmlns="http://www.w3.org/2000/svg" width="37" height="37" viewBox="0 0 37 37">
    <g fill="#D4D4D4" fill-rule="evenodd">
        <path d="M0 18.5C0 8.283 8.283 0 18.5 0S37 8.283 37 18.5 28.717 37 18.5 37 0 28.717 0 18.5zm18.5-9.867c-2.679 0-3.015.012-4.067.06-1.05.048-1.768.214-2.395.458-.65.252-1.2.59-1.748 1.138a4.844 4.844 0 0 0-1.139 1.748c-.244.627-.411 1.345-.458 2.394-.047 1.053-.06 1.39-.06 4.07 0 2.679.012 3.014.06 4.066.048 1.05.215 1.768.458 2.395.253.65.59 1.2 1.138 1.748a4.831 4.831 0 0 0 1.748 1.139c.627.244 1.345.41 2.395.458 1.052.048 1.388.06 4.068.06 2.68 0 3.015-.012 4.067-.06 1.05-.048 1.768-.214 2.396-.458a4.827 4.827 0 0 0 1.747-1.139 4.844 4.844 0 0 0 1.139-1.748c.242-.627.409-1.344.458-2.394.047-1.053.06-1.388.06-4.068 0-2.68-.013-3.016-.06-4.068-.05-1.05-.216-1.768-.458-2.395a4.843 4.843 0 0 0-1.14-1.748 4.822 4.822 0 0 0-1.746-1.138c-.63-.244-1.347-.41-2.397-.458-1.053-.048-1.388-.06-4.068-.06h.003z"/>
        <path d="M17.616 10.411h.885c2.634 0 2.947.01 3.987.057.962.044 1.484.205 1.832.34.46.179.789.393 1.134.738.345.345.559.674.738 1.135.135.347.296.87.34 1.831.047 1.04.057 1.353.057 3.986s-.01 2.945-.057 3.986c-.044.962-.205 1.484-.34 1.831a3.05 3.05 0 0 1-.738 1.134c-.346.345-.673.559-1.134.738-.348.135-.87.296-1.832.34-1.04.047-1.353.057-3.987.057-2.635 0-2.947-.01-3.987-.057-.962-.045-1.484-.206-1.832-.34a3.056 3.056 0 0 1-1.135-.739 3.058 3.058 0 0 1-.738-1.134c-.135-.347-.296-.87-.34-1.831-.047-1.04-.057-1.353-.057-3.988 0-2.634.01-2.945.057-3.985.044-.962.205-1.485.34-1.832.179-.46.393-.79.738-1.135s.674-.56 1.135-.738c.348-.136.87-.296 1.832-.34.91-.042 1.263-.054 3.102-.056v.002zm6.152 1.639a1.184 1.184 0 1 0 0 2.368 1.184 1.184 0 0 0 0-2.369zM18.5 13.433a5.067 5.067 0 1 0 0 10.135 5.067 5.067 0 0 0 0-10.135z"/>
        <path d="M18.5 15.211a3.289 3.289 0 1 1 0 6.578 3.289 3.289 0 0 1 0-6.578z"/>
    </g>
</svg>
