<svg xmlns="http://www.w3.org/2000/svg" width="37" height="37" viewBox="0 0 37 37">
    <path fill="#D4D4D4" fill-rule="evenodd" d="M.258 18.42c0 7.584 4.794 14.064 11.56 16.673-.16-1.416-.302-3.59.064-5.138.329-1.397 2.133-8.899 2.133-8.899s-.544-1.073-.544-2.658c0-2.49 1.464-4.349 3.291-4.349 1.55 0 2.3 1.147 2.3 2.523 0 1.536-.993 3.832-1.507 5.961-.428 1.784.91 3.236 2.694 3.236 3.233 0 5.718-3.357 5.718-8.2 0-4.288-3.127-7.285-7.597-7.285-5.175 0-8.212 3.822-8.212 7.771 0 1.539.6 3.19 1.352 4.087.148.177.17.332.127.514-.138.565-.445 1.782-.505 2.03-.08.327-.265.397-.61.24-2.271-1.04-3.69-4.312-3.69-6.936 0-5.649 4.169-10.838 12.017-10.838 6.31 0 11.214 4.428 11.214 10.342 0 6.171-3.954 11.138-9.438 11.138-1.844 0-3.577-.944-4.17-2.057 0 0-.912 3.418-1.133 4.256-.411 1.555-1.52 3.504-2.26 4.694 1.7.52 3.509.8 5.385.8 10.046 0 18.19-8.017 18.19-17.906 0-9.891-8.144-17.905-18.19-17.905C8.401.514.258 8.528.258 18.419z"/>
</svg>
